<svg width="57" height="55" viewBox="0 0 57 55" fill="none" xmlns="http://www.w3.org/2000/svg">
<path d="M14.0909 29.9091H17.9545L21.1932 34.1705L22.0455 35.3068L26.875 41.7273H23.0114L19.8295 37.4659L19.0341 36.3864L14.0909 29.9091ZM28.0682 24.4545C28.0682 27.5227 27.5142 30.1742 26.4062 32.4091C25.2983 34.6439 23.7784 36.3674 21.8466 37.5795C19.9148 38.7917 17.7083 39.3977 15.2273 39.3977C12.7462 39.3977 10.5398 38.7917 8.60795 37.5795C6.67614 36.3674 5.15625 34.6439 4.0483 32.4091C2.94034 30.1742 2.38636 27.5227 2.38636 24.4545C2.38636 21.3864 2.94034 18.7348 4.0483 16.5C5.15625 14.2652 6.67614 12.5417 8.60795 11.3295C10.5398 10.1174 12.7462 9.51136 15.2273 9.51136C17.7083 9.51136 19.9148 10.1174 21.8466 11.3295C23.7784 12.5417 25.2983 14.2652 26.4062 16.5C27.5142 18.7348 28.0682 21.3864 28.0682 24.4545ZM24.6591 24.4545C24.6591 21.9356 24.2377 19.8097 23.3949 18.0767C22.5616 16.3438 21.4299 15.0322 20 14.142C18.5795 13.2519 16.9886 12.8068 15.2273 12.8068C13.4659 12.8068 11.8703 13.2519 10.4403 14.142C9.01989 15.0322 7.88826 16.3438 7.04545 18.0767C6.21212 19.8097 5.79545 21.9356 5.79545 24.4545C5.79545 26.9735 6.21212 29.0994 7.04545 30.8324C7.88826 32.5653 9.01989 33.8769 10.4403 34.767C11.8703 35.6572 13.4659 36.1023 15.2273 36.1023C16.9886 36.1023 18.5795 35.6572 20 34.767C21.4299 33.8769 22.5616 32.5653 23.3949 30.8324C24.2377 29.0994 24.6591 26.9735 24.6591 24.4545ZM33.8175 39H30.1243L40.8061 9.90909H44.4425L55.1243 39H51.4311L42.7379 14.5114H42.5107L33.8175 39ZM35.1811 27.6364H50.0675V30.7614H35.1811V27.6364Z" fill="#02040D"/>
<path d="M5.97017 52.1477C5.28693 52.1477 4.69756 51.9969 4.20206 51.6953C3.70964 51.3906 3.32955 50.9659 3.06179 50.4212C2.79711 49.8733 2.66477 49.2363 2.66477 48.5099C2.66477 47.7836 2.79711 47.1435 3.06179 46.5895C3.32955 46.0324 3.70194 45.5985 4.17898 45.2876C4.65909 44.9737 5.21922 44.8168 5.85938 44.8168C6.22869 44.8168 6.5934 44.8783 6.95348 45.0014C7.31357 45.1245 7.64134 45.3246 7.93679 45.6016C8.23224 45.8755 8.46768 46.2386 8.64311 46.6911C8.81854 47.1435 8.90625 47.7005 8.90625 48.3622V48.8239H3.44034V47.8821H7.7983C7.7983 47.482 7.71828 47.125 7.55824 46.8111C7.40128 46.4972 7.17661 46.2494 6.88423 46.0678C6.59493 45.8862 6.25331 45.7955 5.85938 45.7955C5.42543 45.7955 5.04995 45.9032 4.73295 46.1186C4.41903 46.331 4.17744 46.608 4.00817 46.9496C3.8389 47.2912 3.75426 47.6574 3.75426 48.0483V48.6761C3.75426 49.2116 3.84659 49.6656 4.03125 50.038C4.21899 50.4073 4.47905 50.6889 4.81143 50.8828C5.14382 51.0736 5.53007 51.169 5.97017 51.169C6.25639 51.169 6.51492 51.129 6.74574 51.049C6.97964 50.9659 7.18123 50.8428 7.3505 50.6797C7.51977 50.5135 7.65057 50.3073 7.7429 50.0611L8.79546 50.3565C8.68466 50.7135 8.49846 51.0275 8.23686 51.2983C7.97526 51.5661 7.65211 51.7753 7.2674 51.9261C6.88269 52.0739 6.45028 52.1477 5.97017 52.1477ZM11.6531 47.7344V52H10.5636V44.9091H11.6161V46.017H11.7085C11.8746 45.657 12.127 45.3677 12.4656 45.1491C12.8041 44.9276 13.2411 44.8168 13.7766 44.8168C14.2567 44.8168 14.6768 44.9152 15.0369 45.1122C15.397 45.3061 15.6771 45.6016 15.8771 45.9986C16.0772 46.3925 16.1772 46.8911 16.1772 47.4943V52H15.0877V47.5682C15.0877 47.0111 14.9431 46.5772 14.6538 46.2663C14.3645 45.9524 13.9674 45.7955 13.4627 45.7955C13.1149 45.7955 12.8041 45.8709 12.5302 46.0217C12.2594 46.1725 12.0455 46.3925 11.8885 46.6818C11.7315 46.9711 11.6531 47.322 11.6531 47.7344ZM21.0303 54.8068C20.504 54.8068 20.0516 54.7391 19.673 54.6037C19.2945 54.4714 18.979 54.2959 18.7267 54.0774C18.4774 53.862 18.2789 53.6312 18.1311 53.3849L18.999 52.7756C19.0975 52.9048 19.2222 53.0526 19.373 53.2188C19.5238 53.388 19.73 53.5342 19.9916 53.6573C20.2562 53.7835 20.6025 53.8466 21.0303 53.8466C21.6027 53.8466 22.0751 53.7081 22.4475 53.4311C22.8199 53.1541 23.0061 52.7202 23.0061 52.1293V50.6889H22.9138C22.8338 50.8182 22.7199 50.9782 22.5722 51.169C22.4275 51.3568 22.2182 51.5245 21.9443 51.6722C21.6735 51.8169 21.3073 51.8892 20.8456 51.8892C20.2732 51.8892 19.7592 51.7538 19.3037 51.483C18.8513 51.2121 18.4927 50.8182 18.2281 50.3011C17.9665 49.7841 17.8357 49.1562 17.8357 48.4176C17.8357 47.6913 17.9634 47.0588 18.2188 46.5202C18.4743 45.9786 18.8298 45.56 19.2852 45.2646C19.7407 44.966 20.267 44.8168 20.8641 44.8168C21.3257 44.8168 21.692 44.8937 21.9628 45.0476C22.2367 45.1984 22.446 45.3707 22.5906 45.5646C22.7384 45.7554 22.8522 45.9124 22.9323 46.0355H23.0431V44.9091H24.0956V52.2031C24.0956 52.8125 23.9571 53.308 23.6801 53.6896C23.4062 54.0743 23.0369 54.3559 22.5722 54.5344C22.1105 54.716 21.5966 54.8068 21.0303 54.8068ZM20.9933 50.9105C21.4304 50.9105 21.7997 50.8105 22.1013 50.6104C22.4029 50.4104 22.6322 50.1226 22.7892 49.7472C22.9461 49.3717 23.0246 48.9223 23.0246 48.3991C23.0246 47.8883 22.9477 47.4374 22.7938 47.0465C22.6399 46.6557 22.4121 46.3494 22.1105 46.1278C21.8089 45.9062 21.4365 45.7955 20.9933 45.7955C20.5317 45.7955 20.147 45.9124 19.8392 46.1463C19.5345 46.3802 19.3052 46.6941 19.1514 47.0881C19.0006 47.482 18.9252 47.919 18.9252 48.3991C18.9252 48.8916 19.0021 49.3271 19.156 49.7056C19.3129 50.0811 19.5438 50.3765 19.8485 50.592C20.1562 50.8043 20.5378 50.9105 20.9933 50.9105ZM26.0899 52V44.9091H27.1794V52H26.0899ZM26.6439 43.7273C26.4316 43.7273 26.2484 43.6549 26.0945 43.5103C25.9437 43.3656 25.8683 43.1918 25.8683 42.9886C25.8683 42.7855 25.9437 42.6116 26.0945 42.467C26.2484 42.3223 26.4316 42.25 26.6439 42.25C26.8563 42.25 27.0378 42.3223 27.1887 42.467C27.3425 42.6116 27.4195 42.7855 27.4195 42.9886C27.4195 43.1918 27.3425 43.3656 27.1887 43.5103C27.0378 43.6549 26.8563 43.7273 26.6439 43.7273ZM30.2644 47.7344V52H29.1749V44.9091H30.2275V46.017H30.3198C30.486 45.657 30.7383 45.3677 31.0769 45.1491C31.4154 44.9276 31.8525 44.8168 32.388 44.8168C32.8681 44.8168 33.2882 44.9152 33.6483 45.1122C34.0083 45.3061 34.2884 45.6016 34.4885 45.9986C34.6885 46.3925 34.7885 46.8911 34.7885 47.4943V52H33.699V47.5682C33.699 47.0111 33.5544 46.5772 33.2651 46.2663C32.9758 45.9524 32.5788 45.7955 32.074 45.7955C31.7263 45.7955 31.4154 45.8709 31.1415 46.0217C30.8707 46.1725 30.6568 46.3925 30.4998 46.6818C30.3429 46.9711 30.2644 47.322 30.2644 47.7344ZM39.7524 52.1477C39.0692 52.1477 38.4798 51.9969 37.9843 51.6953C37.4919 51.3906 37.1118 50.9659 36.844 50.4212C36.5793 49.8733 36.447 49.2363 36.447 48.5099C36.447 47.7836 36.5793 47.1435 36.844 46.5895C37.1118 46.0324 37.4842 45.5985 37.9612 45.2876C38.4413 44.9737 39.0015 44.8168 39.6416 44.8168C40.0109 44.8168 40.3756 44.8783 40.7357 45.0014C41.0958 45.1245 41.4236 45.3246 41.719 45.6016C42.0145 45.8755 42.2499 46.2386 42.4253 46.6911C42.6008 47.1435 42.6885 47.7005 42.6885 48.3622V48.8239H37.2226V47.8821H41.5805C41.5805 47.482 41.5005 47.125 41.3405 46.8111C41.1835 46.4972 40.9588 46.2494 40.6665 46.0678C40.3772 45.8862 40.0355 45.7955 39.6416 45.7955C39.2077 45.7955 38.8322 45.9032 38.5152 46.1186C38.2013 46.331 37.9597 46.608 37.7904 46.9496C37.6211 47.2912 37.5365 47.6574 37.5365 48.0483V48.6761C37.5365 49.2116 37.6288 49.6656 37.8135 50.038C38.0012 50.4073 38.2613 50.6889 38.5937 50.8828C38.926 51.0736 39.3123 51.169 39.7524 51.169C40.0386 51.169 40.2971 51.129 40.528 51.049C40.7619 50.9659 40.9635 50.8428 41.1327 50.6797C41.302 50.5135 41.4328 50.3073 41.5251 50.0611L42.5777 50.3565C42.4669 50.7135 42.2807 51.0275 42.0191 51.2983C41.7575 51.5661 41.4343 51.7753 41.0496 51.9261C40.6649 52.0739 40.2325 52.1477 39.7524 52.1477ZM47.3188 52.1477C46.6356 52.1477 46.0462 51.9969 45.5507 51.6953C45.0583 51.3906 44.6782 50.9659 44.4104 50.4212C44.1457 49.8733 44.0134 49.2363 44.0134 48.5099C44.0134 47.7836 44.1457 47.1435 44.4104 46.5895C44.6782 46.0324 45.0506 45.5985 45.5276 45.2876C46.0077 44.9737 46.5679 44.8168 47.208 44.8168C47.5773 44.8168 47.942 44.8783 48.3021 45.0014C48.6622 45.1245 48.99 45.3246 49.2854 45.6016C49.5809 45.8755 49.8163 46.2386 49.9917 46.6911C50.1672 47.1435 50.2549 47.7005 50.2549 48.3622V48.8239H44.789V47.8821H49.1469C49.1469 47.482 49.0669 47.125 48.9069 46.8111C48.7499 46.4972 48.5252 46.2494 48.2329 46.0678C47.9436 45.8862 47.6019 45.7955 47.208 45.7955C46.7741 45.7955 46.3986 45.9032 46.0816 46.1186C45.7677 46.331 45.5261 46.608 45.3568 46.9496C45.1875 47.2912 45.1029 47.6574 45.1029 48.0483V48.6761C45.1029 49.2116 45.1952 49.6656 45.3799 50.038C45.5676 50.4073 45.8277 50.6889 46.1601 50.8828C46.4925 51.0736 46.8787 51.169 47.3188 51.169C47.605 51.169 47.8635 51.129 48.0944 51.049C48.3283 50.9659 48.5299 50.8428 48.6991 50.6797C48.8684 50.5135 48.9992 50.3073 49.0915 50.0611L50.1441 50.3565C50.0333 50.7135 49.8471 51.0275 49.5855 51.2983C49.3239 51.5661 49.0007 51.7753 48.616 51.9261C48.2313 52.0739 47.7989 52.1477 47.3188 52.1477ZM51.9122 52V44.9091H52.9648V45.9801H53.0386C53.1679 45.6293 53.4018 45.3446 53.7403 45.1261C54.0789 44.9076 54.4605 44.7983 54.8852 44.7983C54.9652 44.7983 55.0653 44.7998 55.1853 44.8029C55.3053 44.806 55.3961 44.8106 55.4577 44.8168V45.9247C55.4207 45.9155 55.3361 45.9016 55.2037 45.8832C55.0745 45.8616 54.9375 45.8509 54.7929 45.8509C54.4482 45.8509 54.1404 45.9232 53.8696 46.0678C53.6018 46.2094 53.3895 46.4064 53.2325 46.6587C53.0786 46.908 53.0017 47.1927 53.0017 47.5128V52H51.9122Z" fill="#02040D"/>
</svg>
